<?xml version="1.0" encoding="iso-8859-1"?>
<!-- Generator: Adobe Illustrator 19.0.0, SVG Export Plug-In . SVG Version: 6.00 Build 0)  -->
<svg version="1.1" id="Layer_1" xmlns="http://www.w3.org/2000/svg" xmlns:xlink="http://www.w3.org/1999/xlink" x="0px" y="0px"
	 viewBox="0 0 512 512" style="enable-background:new 0 0 512 512;" xml:space="preserve">
<path style="fill:#BFE4F8;" d="M315.844,54.36v41.6c77.119,25.24,132.987,97.869,132.987,183.313
	c0,106.327-86.504,192.831-192.831,192.831S63.169,385.6,63.169,279.273c0-85.444,55.868-158.074,132.987-183.313v-41.6
	C96.736,80.836,23.273,171.63,23.273,279.273C23.273,407.599,127.674,512,256,512s232.727-104.401,232.727-232.727
	C488.727,171.63,415.263,80.836,315.844,54.36z"/>
<rect x="236.052" style="fill:#FF5023;" width="39.896" height="239.377"/>
<polygon style="fill:#802812;" points="275.948,132.987 275.948,0 256,0 256,239.377 275.948,239.377 "/>
<path style="fill:#93C7EF;" d="M315.844,54.36v41.6c77.119,25.24,132.987,97.869,132.987,183.313
	c0,106.327-86.504,192.831-192.831,192.831V512c128.326,0,232.727-104.401,232.727-232.727
	C488.727,171.63,415.263,80.836,315.844,54.36z"/>
<g>
</g>
<g>
</g>
<g>
</g>
<g>
</g>
<g>
</g>
<g>
</g>
<g>
</g>
<g>
</g>
<g>
</g>
<g>
</g>
<g>
</g>
<g>
</g>
<g>
</g>
<g>
</g>
<g>
</g>
</svg>
